<svg width="100" height="100" viewBox="0 0 100 100" fill="none" xmlns="http://www.w3.org/2000/svg">
<rect width="100" height="100" rx="5" fill="#64748B"/>
<path d="M41.6667 21.55C41.6667 15.7583 35.0958 11.1625 27.0833 12.5C15.3208 14.4583 9.94582 37.525 10.4167 41.6667C10.75 44.5958 17.6042 48.8417 25.65 45.8333C30.9042 43.8667 33.8167 39.7917 35.4167 35.4167" stroke="white" stroke-width="4" stroke-linecap="round" stroke-linejoin="round"/>
<path d="M59.4459 21.55C59.4459 15.7583 66.0167 11.1625 74.0292 12.5C85.7917 14.4583 91.1667 37.525 90.6959 41.6667C90.3625 44.5958 83.5084 48.8417 75.4625 45.8333C70.2084 43.8667 67.7334 39.7917 66.1334 35.4167" stroke="white" stroke-width="4" stroke-linecap="round" stroke-linejoin="round"/>
<path d="M33.3333 58.3333V60.4167" stroke="white" stroke-width="4" stroke-linecap="round" stroke-linejoin="round"/>
<path d="M66.6667 58.3333V60.4167" stroke="white" stroke-width="4" stroke-linecap="round" stroke-linejoin="round"/>
<path d="M46.875 67.7083H53.125L50 70.8333L46.875 67.7083Z" stroke="white" stroke-width="4" stroke-linecap="round" stroke-linejoin="round"/>
<path d="M18.4166 46.8625C17.2505 51.3654 16.6625 55.9985 16.6666 60.65C16.6666 78.0333 31.5916 87.5 50 87.5C68.4083 87.5 83.3333 78.0333 83.3333 60.65C83.3333 56.2292 82.6583 51.4833 81.2791 46.8625M42.7666 21.5208C45.1491 21.0528 47.5721 20.8225 50 20.8333C53.25 20.8333 56.25 21.2833 59.0041 22.1083" stroke="white" stroke-width="4" stroke-linecap="round" stroke-linejoin="round"/>
</svg>
